<?xml version="1.0" encoding="UTF-8"?>
<svg version="1.1" xmlns="http://www.w3.org/2000/svg" width="250" height="92">
<path d="M0 0 C3 0.125 3 0.125 4 1.125 C4.08775605 3.27058827 4.10695219 5.41904421 4.09765625 7.56640625 C4.09443359 8.87158203 4.09121094 10.17675781 4.08789062 11.52148438 C4.07953401 12.9101569 4.07106905 14.29882877 4.0625 15.6875 C4.05748666 17.08007656 4.05292347 18.47265481 4.04882812 19.86523438 C4.03699434 23.2851987 4.0205088 26.70507844 4 30.125 C5.32 30.455 6.64 30.785 8 31.125 C8 26.505 8 21.885 8 17.125 C12.18819732 17.01676231 16.37357885 16.93755456 20.5625 16.875 C22.33463867 16.82472656 22.33463867 16.82472656 24.14257812 16.7734375 C31.01579091 16.69642671 35.4583597 16.91428736 41 21.125 C44.68219291 25.04475375 44.44346997 29.40716852 44.28515625 34.53515625 C43.76512391 39.25818965 41.91812611 41.31884049 38.4375 44.375 C34.47291734 47.22136704 32.25293933 47.23532293 27.375 47.1875 C26.18648438 47.17847656 24.99796875 47.16945312 23.7734375 47.16015625 C22.85820313 47.14855469 21.94296875 47.13695312 21 47.125 C21 50.755 21 54.385 21 58.125 C16.71 58.125 12.42 58.125 8 58.125 C7.505 47.73 7.505 47.73 7 37.125 C4.51256734 39.61243266 4.74968326 40.35786734 4.74462891 43.78662109 C4.73419052 45.23855362 4.73419052 45.23855362 4.72354126 46.71981812 C4.72453827 47.76876251 4.72553528 48.81770691 4.7265625 49.8984375 C4.70627291 52.1067759 4.68542212 54.31510919 4.6640625 56.5234375 C4.64144737 60.01501762 4.62498929 63.50639685 4.61914062 66.99804688 C4.60963525 70.36104929 4.57587745 73.72313884 4.5390625 77.0859375 C4.54410797 78.13083344 4.54915344 79.17572937 4.55435181 80.25228882 C4.45755573 87.36250054 4.45755573 87.36250054 2.40576172 90.78173828 C-0.86457813 92.60773887 -3.29083637 92.6427745 -7.03125 92.65625 C-7.70418091 92.6600769 -8.37711182 92.66390381 -9.07043457 92.66784668 C-10.4891917 92.6705613 -11.90799927 92.66323134 -13.32666016 92.64648438 C-15.49365203 92.62506275 -17.65732951 92.64629538 -19.82421875 92.671875 C-21.20573646 92.66923164 -22.5872521 92.66410647 -23.96875 92.65625 C-25.22107422 92.65173828 -26.47339844 92.64722656 -27.76367188 92.64257812 C-31 92.125 -31 92.125 -33.41503906 90.73144531 C-35.9197952 86.61241011 -35.4918475 82.61549363 -35.390625 77.890625 C-35.38496521 76.89746277 -35.37930542 75.90430054 -35.37347412 74.88104248 C-35.35110026 71.71186941 -35.30090106 68.5438308 -35.25 65.375 C-35.22993635 63.22527676 -35.21168534 61.07553577 -35.1953125 58.92578125 C-35.15123239 53.65846771 -35.08431033 48.39181491 -35 43.125 C-36.32 42.795 -37.64 42.465 -39 42.125 C-39 41.465 -39 40.805 -39 40.125 C-37.68 40.125 -36.36 40.125 -35 40.125 C-35.02618408 39.26745117 -35.05236816 38.40990234 -35.0793457 37.52636719 C-35.16470597 34.33583811 -35.22731513 31.14589193 -35.2746582 27.95458984 C-35.2997593 26.57516298 -35.33384873 25.19586858 -35.37719727 23.81689453 C-35.43802875 21.83164128 -35.46357937 19.84540641 -35.48828125 17.859375 C-35.51446533 16.66538086 -35.54064941 15.47138672 -35.56762695 14.24121094 C-35 11.125 -35 11.125 -32.85546875 8.72851562 C-29.5331738 6.86284931 -27.61191142 6.65974066 -23.82421875 6.734375 C-22.66728516 6.74726562 -21.51035156 6.76015625 -20.31835938 6.7734375 C-19.12017578 6.80695312 -17.92199219 6.84046875 -16.6875 6.875 C-14.8612207 6.90207031 -14.8612207 6.90207031 -12.99804688 6.9296875 C-9.99789578 6.97674869 -6.99935111 7.0424869 -4 7.125 C-4.020625 6.155625 -4.04125 5.18625 -4.0625 4.1875 C-3.98042553 0.16585106 -3.98042553 0.16585106 0 0 Z M-27.58203125 19.6953125 C-29.53880777 23.04824637 -29.39271627 25.52166073 -29.25 29.375 C-29.21390625 30.63828125 -29.1778125 31.9015625 -29.140625 33.203125 C-29.09421875 34.16734375 -29.0478125 35.1315625 -29 36.125 C-27.02 34.805 -25.04 33.485 -23 32.125 C-22.34 33.445 -21.68 34.765 -21 36.125 C-18.14820529 35.76537102 -17.10604616 35.23514144 -15.078125 33.12890625 C-14.47484375 32.32324219 -13.8715625 31.51757812 -13.25 30.6875 C-12.63640625 29.88441406 -12.0228125 29.08132812 -11.390625 28.25390625 C-9.81770773 26.26973709 -9.81770773 26.26973709 -10 24.125 C-9.236875 24.455 -8.47375 24.785 -7.6875 25.125 C-5.00930865 26.29936686 -5.00930865 26.29936686 -2 26.125 C-2.26656572 23.19056598 -2.26656572 23.19056598 -3 20.125 C-7.15533305 17.35477797 -10.55414851 17.75729403 -15.4375 17.75 C-16.29666016 17.72550781 -17.15582031 17.70101563 -18.04101562 17.67578125 C-21.85474896 17.65802919 -24.27926042 17.68666821 -27.58203125 19.6953125 Z M21 27.125 C21 30.425 21 33.725 21 37.125 C25.50901363 37.30457899 25.50901363 37.30457899 30 37.125 C32.31563087 35.23999729 32.31563087 35.23999729 32.25 32.125 C32.31563087 29.01000271 32.31563087 29.01000271 30 27.125 C26.98173347 26.85259327 24.03629378 27.03824875 21 27.125 Z M-5.94140625 43.1171875 C-10.59882774 44.46692324 -15.12458864 44.34516022 -19.9375 44.25 C-20.81212891 44.24097656 -21.68675781 44.23195312 -22.58789062 44.22265625 C-24.72538064 44.1992957 -26.86272786 44.16343247 -29 44.125 C-29.02835938 45.40503906 -29.05671875 46.68507813 -29.0859375 48.00390625 C-29.10188965 48.72392822 -29.1178418 49.4439502 -29.13427734 50.18579102 C-29.16014696 52.25582026 -29.16014696 52.25582026 -27.625 54.0625 C-23.78025653 56.57637073 -20.15406887 56.38152796 -15.6875 56.4375 C-14.92759766 56.46650391 -14.16769531 56.49550781 -13.38476562 56.52539062 C-9.52149701 56.56902441 -7.41614945 56.35780712 -3.9765625 54.43359375 C-1.59735251 51.65471409 -1.45083344 50.47233164 -1.6875 46.875 C-1.73261719 45.98296875 -1.77773437 45.0909375 -1.82421875 44.171875 C-1.88222656 43.49640625 -1.94023438 42.8209375 -2 42.125 C-3.35944924 42.07172945 -3.35944924 42.07172945 -5.94140625 43.1171875 Z " fill="#38B54A" transform="translate(87,-0.125)"/>
<path d="M0 0 C0.10137822 6.90498319 0.1714562 13.80977465 0.21972656 20.71533203 C0.23984814 23.06468884 0.26714851 25.41399554 0.30175781 27.76318359 C0.3502504 31.13912315 0.37296357 34.51440086 0.390625 37.890625 C0.41127014 38.94179504 0.43191528 39.99296509 0.45318604 41.07598877 C0.4553916 48.23540227 0.4553916 48.23540227 -1.58496094 51.66113281 C-4.86092248 53.47728456 -7.29017967 53.51777213 -11.03125 53.53125 C-11.70418091 53.5350769 -12.37711182 53.53890381 -13.07043457 53.54284668 C-14.4891917 53.5455613 -15.90799927 53.53823134 -17.32666016 53.52148438 C-19.49365203 53.50006275 -21.65732951 53.52129538 -23.82421875 53.546875 C-25.20573646 53.54423164 -26.5872521 53.53910647 -27.96875 53.53125 C-29.22107422 53.52673828 -30.47339844 53.52222656 -31.76367188 53.51757812 C-35 53 -35 53 -37.41503906 51.60644531 C-39.9197952 47.48741011 -39.4918475 43.49049363 -39.390625 38.765625 C-39.38496521 37.77246277 -39.37930542 36.77930054 -39.37347412 35.75604248 C-39.35110026 32.58686941 -39.30090106 29.4188308 -39.25 26.25 C-39.22993635 24.10027676 -39.21168534 21.95053577 -39.1953125 19.80078125 C-39.15123239 14.53346771 -39.08431033 9.26681491 -39 4 C-37.33388095 3.957279 -35.66617115 3.95936168 -34 4 C-32.33657163 5.66342837 -32.63951903 7.7825709 -32.4375 10.0625 C-32.35371094 10.98160156 -32.26992188 11.90070312 -32.18359375 12.84765625 C-32.12300781 13.55792969 -32.06242187 14.26820312 -32 15 C-27.84385833 16.15602826 -23.78859865 16.22087539 -19.5 16.25 C-18.74074219 16.270625 -17.98148438 16.29125 -17.19921875 16.3125 C-13.96226524 16.33517568 -11.44287927 16.21346919 -8.50390625 14.796875 C-6.54848446 12.46052689 -6.50489114 11.01912303 -6.4375 8 C-6.32203245 3.43563574 -6.32203245 3.43563574 -4.66015625 1.1875 C-3 0 -3 0 0 0 Z " fill="#D7E2D1" transform="translate(91,39)"/>
<path d="M0 0 C4.29 0 8.58 0 13 0 C16.3 6.6 19.6 13.2 23 20 C26.63 13.4 30.26 6.8 34 0 C38.29 0 42.58 0 47 0 C47 13.53 47 27.06 47 41 C43.37 41 39.74 41 36 41 C35.505 32.09 35.505 32.09 35 23 C32.69 27.62 30.38 32.24 28 37 C25.03 37 22.06 37 19 37 C16.69 32.38 14.38 27.76 12 23 C11.67 28.94 11.34 34.88 11 41 C7.37 41 3.74 41 0 41 C0 27.47 0 13.94 0 0 Z " fill="#38B449" transform="translate(0,17)"/>
<path d="M0 0 C11.22 0 22.44 0 34 0 C34 3.3 34 6.6 34 10 C27.07 10 20.14 10 13 10 C13 11.65 13 13.3 13 15 C19.27 15 25.54 15 32 15 C32 18.63 32 22.26 32 26 C25.73 26 19.46 26 13 26 C13 27.65 13 29.3 13 31 C19.93 31 26.86 31 34 31 C34 34.3 34 37.6 34 41 C22.78 41 11.56 41 0 41 C0 27.47 0 13.94 0 0 Z " fill="#38B449" transform="translate(133,17)"/>
<path d="M0 0 C0.57105469 0.28875 1.14210937 0.5775 1.73046875 0.875 C1.06805086 4.42579859 0.15565104 7.54957466 -1.26953125 10.875 C-4.41893844 10.42508469 -7.26409015 9.87692706 -10.26953125 8.8125 C-13.43372808 7.82368849 -15.97595598 7.71816308 -19.26953125 7.875 C-16.23355063 12.42897093 -11.83697191 12.82249467 -6.75 14.3984375 C-2.87695724 16.04154655 -0.8482381 17.56227921 1.73046875 20.875 C2.86234319 25.7680721 2.47200257 30.39193236 0.23046875 34.875 C-5.14706673 39.17702839 -10.77662571 40.43912957 -17.60546875 40.23828125 C-23.60423447 39.42026774 -29.24840661 37.22241643 -34.26953125 33.875 C-33.70407288 29.91679141 -32.46050777 27.2090947 -30.26953125 23.875 C-24.26953125 25.875 -24.26953125 25.875 -22.0078125 26.67578125 C-21.22792969 26.94777344 -20.44804687 27.21976563 -19.64453125 27.5 C-18.90976563 27.76039062 -18.175 28.02078125 -17.41796875 28.2890625 C-14.99750622 29.0504116 -14.99750622 29.0504116 -11.26953125 28.875 C-11.26953125 27.555 -11.26953125 26.235 -11.26953125 24.875 C-11.99398437 24.69324219 -12.7184375 24.51148437 -13.46484375 24.32421875 C-28.25290615 20.47932253 -28.25290615 20.47932253 -31.26953125 15.875 C-32.29692741 10.97511064 -33.01291233 7.28826522 -30.26953125 2.875 C-21.80677932 -5.66028981 -10.37245142 -4.74923054 0 0 Z " fill="#38B449" transform="translate(203.26953125,19.125)"/>
<path d="M0 0 C4.62 0 9.24 0 14 0 C16.14765917 5.03062504 18.2835228 10.06603373 20.40869141 15.10620117 C21.13302101 16.81947566 21.86053411 18.53140792 22.59130859 20.24194336 C23.64223142 22.70339049 24.68154455 25.16946551 25.71875 27.63671875 C26.04685669 28.39836838 26.37496338 29.16001801 26.7130127 29.94474792 C27.01332397 30.66511734 27.31363525 31.38548676 27.62304688 32.12768555 C28.02275696 33.07033516 28.02275696 33.07033516 28.43054199 34.0320282 C29 36 29 36 29 41 C25.04 41 21.08 41 17 41 C15 37 15 37 15 34 C9.39 34 3.78 34 -2 34 C-2.33 35.98 -2.66 37.96 -3 40 C-4 41 -4 41 -6.72265625 41.09765625 C-7.82480469 41.08605469 -8.92695313 41.07445312 -10.0625 41.0625 C-11.16722656 41.05347656 -12.27195313 41.04445312 -13.41015625 41.03515625 C-14.69212891 41.01775391 -14.69212891 41.01775391 -16 41 C-15.41159342 36.1093418 -13.8863583 31.97237421 -11.875 27.51953125 C-11.56804199 26.82486252 -11.26108398 26.13019379 -10.94482422 25.41447449 C-9.96965994 23.21088891 -8.98520274 21.01161325 -8 18.8125 C-7.01674378 16.60185715 -6.03541952 14.39037066 -5.05517578 12.1783905 C-4.44634712 10.80625888 -3.83542502 9.43505376 -3.22216797 8.06489563 C-2.03225502 5.39682821 -0.92461203 2.7738361 0 0 Z M6 14 C5.49384702 15.26839526 4.99530901 16.53983102 4.5 17.8125 C4.2215625 18.52019531 3.943125 19.22789063 3.65625 19.95703125 C2.8470838 22.11841216 2.8470838 22.11841216 3 25 C5.64 25 8.28 25 11 25 C9.68 21.37 8.36 17.74 7 14 C6.67 14 6.34 14 6 14 Z " fill="#38B449" transform="translate(221,17)"/>
<path d="M0 0 C3 0.125 3 0.125 4 1.125 C4.08775605 3.27058827 4.10695219 5.41904421 4.09765625 7.56640625 C4.09443359 8.87158203 4.09121094 10.17675781 4.08789062 11.52148438 C4.07953401 12.9101569 4.07106905 14.29882877 4.0625 15.6875 C4.05748666 17.08007656 4.05292347 18.47265481 4.04882812 19.86523438 C4.03699434 23.2851987 4.0205088 26.70507844 4 30.125 C1.13275314 29.55155063 0.1385485 29.2635485 -2 27.125 C-2.495 25.3615625 -2.495 25.3615625 -3 23.5625 C-3.33 22.428125 -3.66 21.29375 -4 20.125 C-7.52558233 18.36220883 -11.55395591 18.89786119 -15.4375 18.875 C-16.30955078 18.854375 -17.18160156 18.83375 -18.08007812 18.8125 C-19.33788086 18.80476563 -19.33788086 18.80476563 -20.62109375 18.796875 C-21.3886499 18.7875293 -22.15620605 18.77818359 -22.94702148 18.76855469 C-25.57403291 19.2246656 -26.43827837 19.98777876 -28 22.125 C-28.34527132 25.55590663 -28.43639081 28.8782719 -28.43945312 32.3203125 C-28.5830658 37.6884554 -28.5830658 37.6884554 -30.91015625 40.125 C-33 41.125 -33 41.125 -35 41.125 C-35.12383963 36.92588403 -35.21444607 32.72774184 -35.2746582 28.52734375 C-35.29976347 27.09942099 -35.33385587 25.67162625 -35.37719727 24.24414062 C-35.43803678 22.18848082 -35.46624551 20.13452247 -35.48828125 18.078125 C-35.51446533 16.84223633 -35.54064941 15.60634766 -35.56762695 14.33300781 C-35 11.125 -35 11.125 -32.85546875 8.71484375 C-29.53511751 6.86616666 -27.60273967 6.65992139 -23.82421875 6.734375 C-22.66728516 6.74726562 -21.51035156 6.76015625 -20.31835938 6.7734375 C-19.12017578 6.80695312 -17.92199219 6.84046875 -16.6875 6.875 C-14.8612207 6.90207031 -14.8612207 6.90207031 -12.99804688 6.9296875 C-9.99789578 6.97674869 -6.99935111 7.0424869 -4 7.125 C-4.020625 6.155625 -4.04125 5.18625 -4.0625 4.1875 C-3.98042553 0.16585106 -3.98042553 0.16585106 0 0 Z " fill="#D7E2D1" transform="translate(87,-0.125)"/>
<path d="M0 0 C4.0249681 0.71303243 6.51380397 1.86074335 10 4 C12.9739368 5.3941896 15.98186943 6.70463677 19 8 C18.27238698 11.27425859 17.68895519 12.88724949 15 15 C13.34561387 15.69658363 11.67745682 16.36096883 10 17 C9.175 17.515625 8.35 18.03125 7.5 18.5625 C2.60619557 21.37643755 -2.60089382 21.19241086 -8.125 21.1875 C-8.87257568 21.18814453 -9.62015137 21.18878906 -10.39038086 21.18945312 C-16.41303664 21.13244616 -22.13658582 20.41836369 -28 19 C-28.33 18.01 -28.66 17.02 -29 16 C-28.113125 16.103125 -27.22625 16.20625 -26.3125 16.3125 C-21.93733393 15.89974848 -20.81017043 14.26587374 -18 11 C-16.3125 9.1875 -16.3125 9.1875 -15 8 C-14.34 8 -13.68 8 -13 8 C-12.01 9.485 -12.01 9.485 -11 11 C-7.94918504 10.68276924 -7.09333887 10.11098219 -5.078125 7.71484375 C-4.47484375 6.79832031 -3.8715625 5.88179687 -3.25 4.9375 C-2.63640625 4.01839844 -2.0228125 3.09929688 -1.390625 2.15234375 C-0.93171875 1.44207031 -0.4728125 0.73179688 0 0 Z " fill="#EB1D25" transform="translate(77,24)"/>
<path d="M0 0 C1.6875 1.8125 1.6875 1.8125 3 4 C1.73205555 7.80383334 0.51834151 8.24082925 -3 10 C-6.99879946 11.15754721 -10.85612211 11.08125251 -15 11 C-15.33 10.01 -15.66 9.02 -16 8 C-14.6696875 8.1546875 -14.6696875 8.1546875 -13.3125 8.3125 C-8.93733393 7.89974848 -7.81017043 6.26587374 -5 3 C-2.20689655 0 -2.20689655 0 0 0 Z " fill="#9D4D45" transform="translate(64,32)"/>
<path d="M0 0 C4.29 0.33 8.58 0.66 13 1 C13 1.33 13 1.66 13 2 C8.9472484 2.98248524 5.16138263 3.08159574 1 3 C0.67 2.01 0.34 1.02 0 0 Z " fill="#B44B46" transform="translate(48,40)"/>
</svg>
